<svg xmlns="http://www.w3.org/2000/svg" viewBox="0 0 410 404"><defs><linearGradient id="a" x1="63.5%" x2="27.9%" y1="0%" y2="88.7%"><stop offset="0%" stop-color="#41D1FF"/><stop offset="100%" stop-color="#BD34FE"/></linearGradient><linearGradient id="b" x1="54.5%" x2="49.7%" y1="0%" y2="100%"><stop offset="0%" stop-color="#FFEA83"/><stop offset="8.3%" stop-color="#FFDD35"/><stop offset="100%" stop-color="#FFA800"/></linearGradient></defs><path fill="url(#a)" d="M399.6 59.7 215.5 388.4c-5.6 10-19.8 10-25.4 0L10.4 59.7c-5.8-10.2 1.8-22.7 13-22.2l185.2 7.4a14.5 14.5 0 0 1 13.8 9.6l56.7 145.1c2.9 7.4 13.5 7.4 16.4 0l56.7-145.1a14.5 14.5 0 0 1 13.8-9.6l39.2-1.6c11.2-.5 18.8 12 13 22.2Z"/><path fill="url(#b)" d="M283.1 36.2 206 223.8c-2.9 7.4-13.5 7.4-16.4 0L112.7 36.2c-2.9-7.4 2.9-14.9 10.6-13.8l70.5 10.2a10 10 0 0 1 8.4 6.6l23 63.2c2.5 6.7 11.9 6.7 14.4 0l23-63.2a10 10 0 0 1 8.4-6.6l70.5-10.2c7.7-1.1 13.5 6.4 10.6 13.8Z"/></svg>
